<?xml version="1.0" standalone="no"?><!DOCTYPE svg PUBLIC "-//W3C//DTD SVG 1.1//EN" "http://www.w3.org/Graphics/SVG/1.1/DTD/svg11.dtd"><svg t="1756272588975" class="icon" viewBox="0 0 1024 1024" version="1.1" xmlns="http://www.w3.org/2000/svg" p-id="4678" xmlns:xlink="http://www.w3.org/1999/xlink" width="32" height="32"><path d="M614.719906 554.537538c-49.085619-6.398126-100.270624-2.099385-149.256272-2.099385-119.465 0-209.038758 95.971883-206.839403 215.436884 0 17.094992 8.49751 31.990628 23.493117 40.488138 14.895636 10.696866 34.090013 14.895636 53.28439 17.094992 61.881871 6.398126 123.66377 6.398126 198.341892 6.398125 40.488138 0 93.872498-2.099385 142.858147-4.298741 27.691887 0 53.284389-4.298741 78.876891-14.895636 19.194377-8.49751 29.891243-19.194377 31.990628-40.488138 8.49751-104.569364-72.478766-204.839988-172.74939-217.636239zM680.800547 375.390022c0-87.474373-74.678122-162.052524-164.25188-162.052523-89.573758 0-162.052524 74.678122-162.052523 162.052523-2.099385 87.474373 74.678122 164.251879 162.052523 164.25188 89.673728 0 164.251879-74.678122 164.25188-164.25188z" fill="#ffffff" p-id="4679"></path><path d="M512.349897 0C228.732988 0 0.499854 228.233135 0.499854 511.850044s228.233135 511.850044 511.850043 511.850044 511.850044-228.233135 511.850044-511.850044-228.233135-511.850044-511.850044-511.850044zM787.469296 772.073807c-2.099385 21.293762-12.796251 31.990628-31.990628 40.488138-25.592502 10.696866-51.185004 14.895636-78.876891 14.895636-49.085619 2.099385-102.370009 4.298741-142.858147 4.29874-74.678122 0-136.460021 0-198.341892-6.398125-19.194377-2.099385-38.388753-6.398126-53.28439-17.094992-14.895636-8.49751-23.493117-23.493117-23.493117-40.488138-2.099385-119.465 87.474373-215.436884 206.839403-215.436884 49.085619 0 100.270624-4.298741 149.256272 2.099385C714.99053 567.333789 795.966807 667.604413 787.469296 772.073807zM354.496144 375.390022c0-87.474373 72.478766-162.052524 162.052523-162.052523S680.800547 288.01562 680.800547 375.390022c0 89.573758-74.678122 164.251879-164.25188 164.25188-87.374402 0-164.151909-76.777507-162.052523-164.25188z" fill="#4780ff" p-id="4680"></path></svg>